<?xml version="1.0" encoding="UTF-8"?><svg id="final_version" xmlns="http://www.w3.org/2000/svg" viewBox="0 0 1600 700"><g id="E"><rect x="784.8" y="75.08" width="17.46" height="165.17"/><rect x="763.68" y="173.76" width="128.93" height="14.86"/><rect x="784.8" y="75.08" width="107.84" height="14.86"/><rect x="784.8" y="225.38" width="107.84" height="14.86"/></g><g id="A"><polyline points="903.75 173.77 1031.31 173.77 1031.31 188.63 903.75 188.63"/><polygon points="1049.38 240.25 985.29 106.3 921.16 240.25 903.65 240.25 985.29 69.82 1066.9 240.25 1049.38 240.25"/></g><path id="R" d="M1167.55,75.17v165.17h17.46V90.03h49.79c23.83,0,32.8,15.34,32.8,34.45,0,20.76-9.91,32.56-32.8,32.56h-32.33v19.82l78.1,65.59,10.85-12.98-68.9-57.57h12.27c30.2,0,50.26-14.86,50.26-47.43s-19.11-49.31-50.26-49.31h-67.25Z"/><path id="O" d="M1384.59,243.06c-45.94,0-88.93-36.57-88.93-84.51s39.57-86.29,88.93-86.29,89.15,38.35,89.15,85.4-40.26,85.4-89.15,85.4ZM1384.36,87.21c-39.8,0-71.87,33-71.87,71.35s32.98,69.57,72.1,69.57,72.32-32.33,72.32-70.24-32.07-70.68-72.55-70.68Z"/><path id="M" d="M377.91,435.02v-146.94h-.45l-63,146.94h-14.33l-62.54-146.94h-.45v146.94h-16.83v-165h25.93l61.18,140.47,61.41-140.47h25.93v165h-16.83Z"/><g id="U"><path d="M470.48,437.94c-16.69,0-30.8-4.65-40.8-13.43-5.67-4.99-10.04-11.27-12.97-18.69-2.99-7.55-4.51-16.35-4.51-26.15v-109.66h17.46v109.66c0,14.32,3.88,24.99,11.55,31.73,8.54,7.51,20.63,9.09,29.27,9.09s20.73-1.58,29.27-9.09c7.66-6.73,11.55-17.41,11.55-31.73v-109.66h17.46v109.66c0,9.8-1.52,18.6-4.51,26.15-2.93,7.41-7.3,13.7-12.97,18.69-10,8.79-24.1,13.43-40.8,13.43Z"/></g><path id="N" d="M663.34,435.02l-99.84-145.15h-.45v145.15h-16.83v-165h22.74l93.93,136.9h.45v-136.9h16.83v165h-16.83Z"/><rect id="I" x="897.01" y="269.93" width="17.46" height="165.17"/><path id="C" d="M871.04,392.57c-15.18,19.36-35.62,30.43-58.29,30.43-37.75,0-70.96-33-70.96-70.01s33.21-70.68,70.73-70.68c22.74,0,45.49,11.15,58.45,30.1h.23l11.59-11.36c-15.85-20.83-43.44-33.67-70.05-33.67-48.44,0-87.79,37.01-87.79,85.4s40.03,85.17,88.02,85.17c27.14,0,52.45-12.64,69.48-34.18l-11.42-11.19Z"/><rect id="I-2" x="697.63" y="269.93" width="17.46" height="165.17"/><path id="P" d="M949.39,351.81v-67.01h49.79c23.83,0,32.8,15.34,32.8,34.45,0,20.76-9.91,32.56-32.8,32.56h-49.79ZM931.93,269.93v165.17h17.46v-68.43h49.79c30.2,0,50.26-14.86,50.26-47.43s-19.11-49.31-50.26-49.31h-67.25Z"/><g id="A-2"><polyline points="1033.56 368.54 1161.13 368.54 1161.13 383.41 1033.56 383.41"/><polygon points="1179.2 435.03 1115.1 301.08 1050.97 435.03 1033.46 435.03 1115.11 264.6 1196.71 435.03 1179.2 435.03"/></g><g id="L"><rect x="698.28" y="464.64" width="17.46" height="165.17"/><rect x="707.01" y="614.94" width="90.37" height="14.86"/></g><path id="O-2" d="M875,632.8c-45.94,0-88.93-36.57-88.93-84.51s39.57-86.29,88.93-86.29,89.15,38.35,89.15,85.4-40.26,85.4-89.15,85.4ZM874.78,476.94c-39.8,0-71.87,33-71.87,71.35s32.98,69.57,72.1,69.57,72.32-32.33,72.32-70.24-32.07-70.68-72.55-70.68Z"/><g id="U-2"><path d="M1036.35,632.8c-16.69,0-30.8-4.65-40.8-13.43-5.67-4.99-10.04-11.27-12.97-18.69-2.99-7.55-4.51-16.35-4.51-26.15v-109.66h17.46v109.66c0,14.32,3.88,24.99,11.55,31.73,8.54,7.51,20.63,9.09,29.27,9.09s20.73-1.58,29.27-9.09c7.66-6.73,11.55-17.41,11.55-31.73v-109.66h17.46v109.66c0,9.8-1.52,18.6-4.51,26.15-2.93,7.41-7.3,13.7-12.97,18.69-10,8.79-24.1,13.43-40.8,13.43Z"/></g><path id="S" d="M1191.77,506.83c0-16.95-14.1-29.88-29.79-29.88-17.28,0-30.47,12.71-30.47,28.76,0,14.05,8.64,22.74,32.52,28.76,36.39,9.14,48.67,27.65,48.67,49.94,0,26.98-22.51,48.38-50.72,48.38-29.79,0-51.4-19.62-51.85-49.05h16.83c1.14,21.18,14.78,34.11,35.02,34.11,19.1,0,33.89-14.72,33.89-32.77s-12.05-27.87-34.11-34.11c-24.11-6.69-47.08-14.49-47.08-44.59,0-26.09,21.38-44.37,47.3-44.37s46.62,19.4,46.62,44.81h-16.83Z"/><g id="A-3"><polyline points="1225.13 563.49 1352.7 563.49 1352.7 578.35 1225.13 578.35"/><polygon points="1370.77 629.97 1306.67 496.03 1242.54 629.97 1225.03 629.97 1306.68 459.55 1388.28 629.97 1370.77 629.97"/></g><g id="L-2"><rect x="1207.69" y="269.93" width="17.46" height="165.17"/><rect x="1216.42" y="420.23" width="90.37" height="14.86"/></g><polyline points="1267.49 455.59 1345.82 455.59 1345.82 470.53 1267.49 470.53"/><polygon id="T" points="771.3 75.17 641.42 75.17 641.42 90.11 697.63 90.11 697.63 240.16 715.09 240.16 715.09 90.11 771.3 90.11 771.3 75.17"/><polygon id="T-2" points="1153.82 75.17 1023.93 75.17 1023.93 90.11 1080.14 90.11 1080.14 240.16 1097.6 240.16 1097.6 90.11 1153.82 90.11 1153.82 75.17"/></svg>