<?xml version="1.0" encoding="UTF-8"?>
<svg xmlns="http://www.w3.org/2000/svg" version="1.1" viewBox="0 0 1253.4 560.5">
  <!-- Generator: Adobe Illustrator 28.7.1, SVG Export Plug-In . SVG Version: 1.2.0 Build 142)  -->
  <g>
    <g id="final_version">
      <g id="E">
        <rect x="564.5" y="2.8" width="17.5" height="165.2"/>
        <rect x="543.4" y="101.5" width="128.9" height="14.9"/>
        <rect x="564.5" y="2.8" width="107.8" height="14.9"/>
        <rect x="564.5" y="153.1" width="107.8" height="14.9"/>
      </g>
      <g id="A">
        <polyline points="683.4 101.5 811 101.5 811 116.4 683.4 116.4"/>
        <polygon points="829.1 168 765 34 700.8 168 683.3 168 765 -2.4 846.6 168 829.1 168"/>
      </g>
      <path id="R" d="M947.2,2.9v165.2h17.5V17.8h49.8c23.8,0,32.8,15.3,32.8,34.4s-9.9,32.6-32.8,32.6h-32.3v19.8l78.1,65.6,10.8-13-68.9-57.6h12.3c30.2,0,50.3-14.9,50.3-47.4s-19.1-49.3-50.3-49.3h-67.2,0Z"/>
      <path id="O" d="M1164.3,170.8c-45.9,0-88.9-36.6-88.9-84.5S1114.9,0,1164.3,0s89.2,38.3,89.2,85.4-40.3,85.4-89.2,85.4ZM1164,15c-39.8,0-71.9,33-71.9,71.3s33,69.6,72.1,69.6,72.3-32.3,72.3-70.2-32.1-70.7-72.6-70.7h0Z"/>
      <path id="M" d="M157.6,362.8v-146.9h-.5l-63,146.9h-14.3L17.3,215.8h-.4v146.9H0v-165h25.9l61.2,140.5,61.4-140.5h25.9v165h-16.8Z"/>
      <g id="U">
        <path d="M250.2,365.7c-16.7,0-30.8-4.6-40.8-13.4-5.7-5-10-11.3-13-18.7-3-7.5-4.5-16.4-4.5-26.1v-109.7h17.5v109.7c0,14.3,3.9,25,11.5,31.7,8.5,7.5,20.6,9.1,29.3,9.1s20.7-1.6,29.3-9.1c7.7-6.7,11.5-17.4,11.5-31.7v-109.7h17.5v109.7c0,9.8-1.5,18.6-4.5,26.1-2.9,7.4-7.3,13.7-13,18.7-10,8.8-24.1,13.4-40.8,13.4h0Z"/>
      </g>
      <path id="N" d="M443,362.8l-99.8-145.1h-.5v145.1h-16.8v-165h22.7l93.9,136.9h.5v-136.9h16.8v165h-16.8,0Z"/>
      <rect id="I" x="676.7" y="197.7" width="17.5" height="165.2"/>
      <path id="C" d="M650.7,320.3c-15.2,19.4-35.6,30.4-58.3,30.4-37.8,0-71-33-71-70s33.2-70.7,70.7-70.7,45.5,11.1,58.5,30.1h.2l11.6-11.4c-15.8-20.8-43.4-33.7-70-33.7-48.4,0-87.8,37-87.8,85.4s40,85.2,88,85.2,52.5-12.6,69.5-34.2l-11.4-11.2h0Z"/>
      <rect id="I-2" x="477.3" y="197.7" width="17.5" height="165.2"/>
      <path id="P" d="M729.1,279.6v-67h49.8c23.8,0,32.8,15.3,32.8,34.5s-9.9,32.6-32.8,32.6h-49.8ZM711.6,197.7v165.2h17.5v-68.4h49.8c30.2,0,50.3-14.9,50.3-47.4s-19.1-49.3-50.3-49.3h-67.2,0Z"/>
      <g id="A-2">
        <polyline points="813.3 296.3 940.8 296.3 940.8 311.2 813.3 311.2"/>
        <polygon points="958.9 362.8 894.8 228.8 830.7 362.8 813.1 362.8 894.8 192.3 976.4 362.8 958.9 362.8"/>
      </g>
      <g id="L">
        <rect x="478" y="392.4" width="17.5" height="165.2"/>
        <rect x="486.7" y="542.7" width="90.4" height="14.9"/>
      </g>
      <path id="O-2" d="M654.7,560.5c-45.9,0-88.9-36.6-88.9-84.5s39.6-86.3,88.9-86.3,89.2,38.4,89.2,85.4-40.3,85.4-89.2,85.4ZM654.5,404.7c-39.8,0-71.9,33-71.9,71.3s33,69.6,72.1,69.6,72.3-32.3,72.3-70.2-32.1-70.7-72.5-70.7Z"/>
      <g id="U-2">
        <path d="M816,560.5c-16.7,0-30.8-4.7-40.8-13.4-5.7-5-10-11.3-13-18.7-3-7.5-4.5-16.3-4.5-26.2v-109.7h17.5v109.7c0,14.3,3.9,25,11.5,31.7,8.5,7.5,20.6,9.1,29.3,9.1s20.7-1.6,29.3-9.1c7.7-6.7,11.6-17.4,11.6-31.7v-109.7h17.5v109.7c0,9.8-1.5,18.6-4.5,26.2-2.9,7.4-7.3,13.7-13,18.7-10,8.8-24.1,13.4-40.8,13.4Z"/>
      </g>
      <path id="S" d="M971.5,434.6c0-17-14.1-29.9-29.8-29.9s-30.5,12.7-30.5,28.8,8.6,22.7,32.5,28.8c36.4,9.1,48.7,27.7,48.7,49.9s-22.5,48.4-50.7,48.4-51.4-19.6-51.8-49h16.8c1.1,21.2,14.8,34.1,35,34.1s33.9-14.7,33.9-32.8-12.1-27.9-34.1-34.1c-24.1-6.7-47.1-14.5-47.1-44.6s21.4-44.4,47.3-44.4,46.6,19.4,46.6,44.8h-16.8Z"/>
      <g id="A-3">
        <polyline points="1004.8 491.2 1132.4 491.2 1132.4 506.1 1004.8 506.1"/>
        <polygon points="1150.5 557.7 1086.4 423.8 1022.2 557.7 1004.7 557.7 1086.4 387.3 1168 557.7 1150.5 557.7"/>
      </g>
      <g id="L-2">
        <rect x="987.4" y="197.7" width="17.5" height="165.2"/>
        <rect x="996.1" y="348" width="90.4" height="14.9"/>
      </g>
      <polyline points="1047.2 383.3 1125.5 383.3 1125.5 398.3 1047.2 398.3"/>
      <polygon id="T" points="551 2.9 421.1 2.9 421.1 17.9 477.3 17.9 477.3 167.9 494.8 167.9 494.8 17.9 551 17.9 551 2.9"/>
      <polygon id="T-2" points="933.5 2.9 803.6 2.9 803.6 17.9 859.8 17.9 859.8 167.9 877.3 167.9 877.3 17.9 933.5 17.9 933.5 2.9"/>
    </g>
  </g>
</svg>