<?xml version="1.0" encoding="UTF-8"?>
<svg id="Layer_2" xmlns="http://www.w3.org/2000/svg" viewBox="0 0 1253.43 368.13">
  <g id="Layer_2-2" data-name="Layer_2">
    <g id="final_version">
      <g id="E">
        <rect x="564.49" y="5.26" width="17.46" height="165.17"/>
        <rect x="543.37" y="103.94" width="128.93" height="14.86"/>
        <rect x="564.49" y="5.26" width="107.84" height="14.86"/>
        <rect x="564.49" y="155.56" width="107.84" height="14.86"/>
      </g>
      <g id="A">
        <polyline points="683.44 103.95 811 103.95 811 118.81 683.44 118.81"/>
        <polygon points="829.07 170.43 764.98 36.48 700.85 170.43 683.34 170.43 764.98 0 846.59 170.43 829.07 170.43"/>
      </g>
      <path id="R" d="M947.24,5.35v165.17h17.46V20.21h49.79c23.83,0,32.8,15.34,32.8,34.45,0,20.76-9.91,32.56-32.8,32.56h-32.33v19.82l78.1,65.59,10.85-12.98-68.9-57.57h12.27c30.2,0,50.26-14.86,50.26-47.43s-19.11-49.31-50.26-49.31h-67.25.01Z"/>
      <path id="O" d="M1164.28,173.24c-45.94,0-88.93-36.57-88.93-84.51S1114.92,2.44,1164.28,2.44s89.15,38.35,89.15,85.4-40.26,85.4-89.15,85.4ZM1164.05,17.39c-39.8,0-71.87,33-71.87,71.35s32.98,69.57,72.1,69.57,72.32-32.33,72.32-70.24-32.07-70.68-72.55-70.68h0Z"/>
      <path id="M" d="M157.6,365.2v-146.94h-.45l-63,146.94h-14.33L17.28,218.26h-.45v146.94H0v-165h25.93l61.18,140.47,61.41-140.47h25.93v165h-16.85Z"/>
      <g id="U">
        <path d="M250.17,368.12c-16.69,0-30.8-4.65-40.8-13.43-5.67-4.99-10.04-11.27-12.97-18.69-2.99-7.55-4.51-16.35-4.51-26.15v-109.66h17.46v109.66c0,14.32,3.88,24.99,11.55,31.73,8.54,7.51,20.63,9.09,29.27,9.09s20.73-1.58,29.27-9.09c7.66-6.73,11.55-17.41,11.55-31.73v-109.66h17.46v109.66c0,9.8-1.52,18.6-4.51,26.15-2.93,7.41-7.3,13.7-12.97,18.69-10,8.79-24.1,13.43-40.8,13.43h0Z"/>
      </g>
      <path id="N" d="M443.03,365.2l-99.84-145.15h-.45v145.15h-16.83v-165h22.74l93.93,136.9h.45v-136.9h16.83v165h-16.83Z"/>
      <rect id="I" x="676.7" y="200.11" width="17.46" height="165.17"/>
      <path id="C" d="M650.73,322.75c-15.18,19.36-35.62,30.43-58.29,30.43-37.75,0-70.96-33-70.96-70.01s33.21-70.68,70.73-70.68c22.74,0,45.49,11.15,58.45,30.1h.23l11.59-11.36c-15.85-20.83-43.44-33.67-70.05-33.67-48.44,0-87.79,37.01-87.79,85.4s40.03,85.17,88.02,85.17c27.14,0,52.45-12.64,69.48-34.18l-11.42-11.19h.01Z"/>
      <rect id="I-2" x="477.32" y="200.11" width="17.46" height="165.17"/>
      <path id="P" d="M729.08,281.99v-67.01h49.79c23.83,0,32.8,15.34,32.8,34.45,0,20.76-9.91,32.56-32.8,32.56h-49.79ZM711.62,200.11v165.17h17.46v-68.43h49.79c30.2,0,50.26-14.86,50.26-47.43s-19.11-49.31-50.26-49.31h-67.25Z"/>
      <g id="A-2">
        <polyline points="813.25 298.72 940.82 298.72 940.82 313.59 813.25 313.59"/>
        <polygon points="958.89 365.21 894.79 231.26 830.66 365.21 813.15 365.21 894.8 194.78 976.4 365.21 958.89 365.21"/>
      </g>
      <g id="L-2">
        <rect x="987.38" y="200.11" width="17.46" height="165.17"/>
        <rect x="996.11" y="350.41" width="90.37" height="14.86"/>
      </g>
      <polygon id="T" points="550.99 5.35 421.11 5.35 421.11 20.29 477.32 20.29 477.32 170.34 494.78 170.34 494.78 20.29 550.99 20.29 550.99 5.35"/>
      <polygon id="T-2" points="933.51 5.35 803.62 5.35 803.62 20.29 859.83 20.29 859.83 170.34 877.29 170.34 877.29 20.29 933.51 20.29 933.51 5.35"/>
    </g>
  </g>
</svg>