<?xml version="1.0" encoding="UTF-8"?>
<svg xmlns="http://www.w3.org/2000/svg" version="1.1" viewBox="0 0 1253.4 365.4">
  <!-- Generator: Adobe Illustrator 28.7.1, SVG Export Plug-In . SVG Version: 1.2.0 Build 142)  -->
  <g>
    <g id="Layer_1">
      <g id="E">
        <rect x="564.5" y="5.3" width="17.5" height="165.2"/>
        <rect x="543.4" y="104" width="128.9" height="14.9"/>
        <rect x="564.5" y="5.3" width="107.8" height="14.9"/>
        <rect x="564.5" y="155.7" width="107.8" height="14.9"/>
      </g>
      <g id="A">
        <polyline points="683.4 104 811 104 811 118.9 683.4 118.9"/>
        <polygon points="829.1 170.5 765 36.6 700.8 170.5 683.3 170.5 765 0 846.6 170.5 829.1 170.5"/>
      </g>
      <path id="R" d="M947.2,5.4v165.2h17.5V20.3h49.8c23.8,0,32.8,15.3,32.8,34.4s-9.9,32.6-32.8,32.6h-32.3v19.8l78.1,65.6,10.8-13-68.9-57.6h12.3c30.2,0,50.3-14.9,50.3-47.4s-19.1-49.3-50.3-49.3h-67.2,0Z"/>
      <path id="O" d="M1164.3,173.3c-45.9,0-88.9-36.6-88.9-84.5S1114.9,2.5,1164.3,2.5s89.2,38.3,89.2,85.4-40.3,85.4-89.2,85.4ZM1164,17.5c-39.8,0-71.9,33-71.9,71.3s33,69.6,72.1,69.6,72.3-32.3,72.3-70.2-32.1-70.7-72.6-70.7h0Z"/>
      <path id="M" d="M157.6,365.3v-146.9h-.5l-63,146.9h-14.3L17.3,218.3h-.4v146.9H0v-165h25.9l61.2,140.5,61.4-140.5h25.9v165h-16.8Z"/>
      <g id="U">
        <path d="M250.2,368.2c-16.7,0-30.8-4.6-40.8-13.4-5.7-5-10-11.3-13-18.7-3-7.5-4.5-16.4-4.5-26.1v-109.7h17.5v109.7c0,14.3,3.9,25,11.5,31.7,8.5,7.5,20.6,9.1,29.3,9.1s20.7-1.6,29.3-9.1c7.7-6.7,11.5-17.4,11.5-31.7v-109.7h17.5v109.7c0,9.8-1.5,18.6-4.5,26.1-2.9,7.4-7.3,13.7-13,18.7-10,8.8-24.1,13.4-40.8,13.4h0Z"/>
      </g>
      <path id="N" d="M443,365.3l-99.8-145.1h-.5v145.1h-16.8v-165h22.7l93.9,136.9h.5v-136.9h16.8v165h-16.8,0Z"/>
      <rect id="I" x="676.7" y="200.2" width="17.5" height="165.2"/>
      <path id="C" d="M650.7,322.8c-15.2,19.4-35.6,30.4-58.3,30.4-37.8,0-71-33-71-70s33.2-70.7,70.7-70.7,45.5,11.1,58.5,30.1h.2l11.6-11.4c-15.8-20.8-43.4-33.7-70-33.7-48.4,0-87.8,37-87.8,85.4s40,85.2,88,85.2,52.5-12.6,69.5-34.2l-11.4-11.2h0Z"/>
      <rect id="I-2" x="477.3" y="200.2" width="17.5" height="165.2"/>
      <path id="P" d="M729.1,282.1v-67h49.8c23.8,0,32.8,15.3,32.8,34.5s-9.9,32.6-32.8,32.6h-49.8ZM711.6,200.2v165.2h17.5v-68.4h49.8c30.2,0,50.3-14.9,50.3-47.4s-19.1-49.3-50.3-49.3h-67.2,0Z"/>
      <g id="A-2">
        <polyline points="813.3 298.8 940.8 298.8 940.8 313.7 813.3 313.7"/>
        <polygon points="958.9 365.3 894.8 231.3 830.7 365.3 813.1 365.3 894.8 194.9 976.4 365.3 958.9 365.3"/>
      </g>
      <g id="L-2">
        <rect x="987.4" y="200.2" width="17.5" height="165.2"/>
        <rect x="996.1" y="350.5" width="90.4" height="14.9"/>
      </g>
      <polygon id="T" points="551 5.4 421.1 5.4 421.1 20.4 477.3 20.4 477.3 170.4 494.8 170.4 494.8 20.4 551 20.4 551 5.4"/>
      <polygon id="T-2" points="933.5 5.4 803.6 5.4 803.6 20.4 859.8 20.4 859.8 170.4 877.3 170.4 877.3 20.4 933.5 20.4 933.5 5.4"/>
    </g>
  </g>
</svg>